<?xml version="1.0" encoding="UTF-8" standalone="no"?>
<svg
   xmlns:dc="http://purl.org/dc/elements/1.1/"
   xmlns:cc="http://creativecommons.org/ns#"
   xmlns:rdf="http://www.w3.org/1999/02/22-rdf-syntax-ns#"
   xmlns:svg="http://www.w3.org/2000/svg"
   xmlns="http://www.w3.org/2000/svg"
   xmlns:sodipodi="http://sodipodi.sourceforge.net/DTD/sodipodi-0.dtd"
   xmlns:inkscape="http://www.inkscape.org/namespaces/inkscape"
   id="svg2"
   viewBox="0 0 442.718 571.33362"
   version="1.0"
   inkscape:version="0.48.4 r9939"
   width="100%"
   height="100%"
   sodipodi:docname="Hand Open Cartoony.svg">
  <defs
     id="defs23" />
  <sodipodi:namedview
     pagecolor="#ffffff"
     bordercolor="#666666"
     borderopacity="1"
     objecttolerance="10"
     gridtolerance="10"
     guidetolerance="10"
     inkscape:pageopacity="0"
     inkscape:pageshadow="2"
     inkscape:window-width="1366"
     inkscape:window-height="706"
     id="namedview21"
     showgrid="false"
     inkscape:zoom="1.2482599"
     inkscape:cx="331.72077"
     inkscape:cy="648.18827"
     inkscape:window-x="-8"
     inkscape:window-y="-8"
     inkscape:window-maximized="1"
     inkscape:current-layer="layer1"
     fit-margin-top="0"
     fit-margin-left="0"
     fit-margin-right="0"
     fit-margin-bottom="0" />
  <g
     id="layer1"
     transform="translate(-22.526869,-12.396383)">
    <path
       id="pathBras"
       d="M 371.29,581.73 C 370.60343,550.97956 385.00341,510.73333 385.31442,481.378 367.84129,456.73512 316.87,443.36 282,443.36 c -36.67,3.6 -103.58847,6.68542 -131.25847,25.57542 6.30266,46.39038 18.5173,60.76769 16.77118,112.49026"
       style="fill:#f9bf9f;fill-opacity:1;fill-rule:evenodd;stroke:#000000;stroke-width:4;stroke-miterlimit:4;stroke-dasharray:none"
       inkscape:connector-curvature="0"
       sodipodi:nodetypes="ccccc" />
    <path
       id="pathContourMain"
       d="M 265.75424,518.49136 C 233.45575,514.7984 219.31427,519.4777 194,516.36 146.25379,509.17686 118.02346,452.35812 101.55401,420.97911 72.480532,356.59083 50.261976,344.53544 47.102477,326.92092 38.049345,297.61876 14.67388,267.50996 29.137116,249.63423 c 15.892188,-19.27923 61.061137,16.90501 74.148214,42.93908 10.93626,29.99006 40.66825,58.24646 50.81161,52.01667 12.68741,-8.50027 -0.34023,-48.50561 8.61581,-95.00299 4.99602,-27.17611 -6.89203,-67.37982 -5.35762,-78.12321 4.67596,-58.52335 -4.49467,-53.65671 -2.30315,-78.20725 0.0854,-12.023175 -1.84873,-36.592539 9.44802,-49.39453 7.06056,-7.161 23.46474,-9.86877 32.10502,-1.194703 C 206.7414,57.850131 207.42582,68.57009 209,84.362 c 0.63,7.912 1.43,15.541 0,28.498 0.10627,18.68693 3.99191,39.29361 7.2659,57.7659 2.84611,20.93622 0.30735,46.79035 5.13606,65.56822 2.04634,8.04385 20.67266,8.18837 21.69748,-0.10921 4.1171,-31.19623 -1.61696,-65.14307 -1.96618,-82.24619 1.66376,-17.06538 1.37552,-59.824337 1.36674,-60.97672 3.05835,-19.79846 -0.10781,-39.640138 5.16763,-57.731214 3.45028,-10.412952 10.22088,-20.426662 25.7659,-20.734104 11.1642,-0.06077 20.29994,9.150529 21.70809,23.16474 1.61799,22.170677 3.95844,44.021297 4.95643,53.77488 -1.29906,25.824518 -0.65377,46.652478 1.10223,63.714218 1.2624,19.3939 -6.95441,59.10421 -2.72597,83.76467 1.8116,8.4948 16.67945,10.44023 17.80818,3.11088 5.73614,-29.40119 4.11281,-34.1417 8.31867,-73.30017 4.29806,-25.99357 13.43181,-40.51105 15.798,-73.975937 2.54873,-21.414934 5.94265,-41.664394 16.46789,-48.322645 8.92244,-5.273556 13.83,-3.333 18,-1.5 18.60331,10.023982 14.84002,35.007958 13.63574,55.817072 -2.68705,21.34123 -6.40416,54.79615 -6.50279,75.21561 -3.17388,25.33392 -16.15443,58.05263 -16.70446,80.90475 0.3574,6.38628 12.46303,10.7381 15.38242,6.21142 13.25369,-16.84204 17.22617,-48.60746 21.49076,-57.82564 4.453,-9.62543 12.56536,-39.4088 16.57303,-46.17669 7.59039,-12.81812 11.40026,-30.42892 22.74935,-36.0065 7.33,-2.70155 19.15724,1.76701 21.60502,12.40056 0.93229,14.41677 -2.66664,36.26264 -6.63456,46.63697 -7.09367,18.54674 -10.15083,42.32429 -14.67017,53.83969 -3.92731,10.00688 -14.17789,39.78587 -20.29139,65.51544 -17.4482,69.91903 -13.35881,179.79137 -50.87712,207.39407 -34.06401,30.04956 -82.59817,12.38318 -104.86864,9.73729 z"
       style="fill:#f9bf9f;fill-opacity:1;fill-rule:evenodd;stroke:#000000;stroke-width:4;stroke-miterlimit:4;stroke-dasharray:none"
       inkscape:connector-curvature="0"
       sodipodi:nodetypes="ccccccccccccccccccccccccccccccccccssccssccc" />
    <path
       id="pathPaumeMilieu"
       d="m 214.27119,311.40661 c 54.93904,24.7096 116.18031,12.05613 164.10593,37.42796"
       style="fill:none;stroke:#000000;stroke-width:4;stroke-linecap:round;stroke-miterlimit:4;stroke-opacity:0.50196078;stroke-dasharray:none"
       inkscape:connector-curvature="0"
       sodipodi:nodetypes="cc" />
    <path
       id="pathLigne"
       d="m 202.13136,332.2922 c 32.36321,28.46636 54.88337,82.86377 54.72457,125.77543"
       inkscape:connector-curvature="0"
       style="fill:none;stroke:#000000;stroke-width:4;stroke-linecap:round;stroke-miterlimit:4;stroke-opacity:0.5;stroke-dasharray:none"
       sodipodi:nodetypes="cc" />
    <path
       id="pathIndexMilieu"
       d="m 168.39219,177.75359 c 10.93976,-3.30833 22.7892,-4.09526 33.80948,-2.69331"
       style="fill:none;stroke:#000000;stroke-width:4;stroke-linecap:round;stroke-miterlimit:4;stroke-opacity:0.50196078;stroke-dasharray:none"
       inkscape:connector-curvature="0"
       sodipodi:nodetypes="cc" />
    <path
       id="pathIndexHaut"
       d="m 165.49442,106.25219 c 11.46369,-2.77661 23.17409,-2.18984 34.5014,-0.4986"
       style="fill:none;stroke:#000000;stroke-width:4;stroke-linecap:round;stroke-miterlimit:4;stroke-opacity:0.50196078;stroke-dasharray:none"
       inkscape:connector-curvature="0"
       sodipodi:nodetypes="cc" />
    <path
       id="pathMajeurHaut"
       d="m 252.72629,90.584095 c 10.22929,-2.663549 26.01688,-3.003996 35.40613,-0.100837"
       style="fill:none;stroke:#000000;stroke-width:4;stroke-linecap:round;stroke-miterlimit:4;stroke-opacity:0.50196078;stroke-dasharray:none"
       inkscape:connector-curvature="0"
       sodipodi:nodetypes="cc" />
    <path
       id="pathMajeurMilieu"
       d="m 252.82712,161.85603 c 11.756,-3.8848 27.70807,-4.48019 39.01533,-0.80112"
       style="fill:none;stroke:#000000;stroke-width:4;stroke-linecap:round;stroke-miterlimit:4;stroke-opacity:0.50196078;stroke-dasharray:none"
       inkscape:connector-curvature="0"
       sodipodi:nodetypes="cc" />
    <path
       id="pathAnnulaireHaut"
       d="m 349.06507,111.33594 c 9.54153,2.12943 21.30809,0.3588 28.90614,4.30251"
       style="fill:none;stroke:#000000;stroke-width:4;stroke-linecap:round;stroke-miterlimit:4;stroke-opacity:0.50196078;stroke-dasharray:none"
       inkscape:connector-curvature="0"
       sodipodi:nodetypes="cc" />
    <path
       id="pathAnnulaireMilieu"
       d="m 334.72681,172.4298 c 7.98,1.96 26.84948,3.02279 34.80948,7.00279"
       style="fill:none;stroke:#000000;stroke-width:4;stroke-linecap:round;stroke-miterlimit:4;stroke-opacity:0.50196078;stroke-dasharray:none"
       inkscape:connector-curvature="0"
       sodipodi:nodetypes="cc" />
    <path
       id="pathAuriculaireMilieu"
       d="m 410.56089,213.26758 c 6.36164,1.68509 17.63694,8.20564 23.00419,12.80669"
       style="fill:none;stroke:#000000;stroke-width:4;stroke-linecap:round;stroke-miterlimit:4;stroke-opacity:0.50196078;stroke-dasharray:none"
       inkscape:connector-curvature="0"
       sodipodi:nodetypes="cc" />
    <path
       id="pathAuriculaireMilieu-1"
       d="m 426.30734,168.78367 c 7.01691,1.66331 13.35459,4.07044 19.19889,9.20167"
       style="fill:none;stroke:#000000;stroke-width:4;stroke-linecap:round;stroke-miterlimit:4;stroke-opacity:0.50196078;stroke-dasharray:none"
       inkscape:connector-curvature="0"
       sodipodi:nodetypes="cc" />
    <path
       id="pathIndexMilieu-1"
       d="m 67.366482,326.51364 c 10.93976,-3.30833 20.523304,-17.97388 31.260347,-21.95343"
       style="fill:none;stroke:#000000;stroke-width:4;stroke-linecap:round;stroke-miterlimit:4;stroke-opacity:0.50196078;stroke-dasharray:none"
       inkscape:connector-curvature="0"
       sodipodi:nodetypes="cc" />
  </g>
  <metadata
     id="metadata19">
    <rdf:RDF>
      <cc:Work>
        <dc:format>image/svg+xml</dc:format>
        <dc:type
           rdf:resource="http://purl.org/dc/dcmitype/StillImage" />
        <cc:license
           rdf:resource="http://creativecommons.org/licenses/publicdomain/" />
        <dc:publisher>
          <cc:Agent
             rdf:about="http://openclipart.org/">
            <dc:title>Openclipart</dc:title>
          </cc:Agent>
        </dc:publisher>
        <dc:title />
        <dc:date>2010-07-26T21:39:31</dc:date>
        <dc:description>a hand</dc:description>
        <dc:source>http://openclipart.org/detail/74737/hand-by-mireille</dc:source>
        <dc:creator>
          <cc:Agent>
            <dc:title>mireille</dc:title>
          </cc:Agent>
        </dc:creator>
        <dc:subject>
          <rdf:Bag>
            <rdf:li>clip art</rdf:li>
            <rdf:li>clipart</rdf:li>
            <rdf:li>hand</rdf:li>
          </rdf:Bag>
        </dc:subject>
      </cc:Work>
      <cc:License
         rdf:about="http://creativecommons.org/licenses/publicdomain/">
        <cc:permits
           rdf:resource="http://creativecommons.org/ns#Reproduction" />
        <cc:permits
           rdf:resource="http://creativecommons.org/ns#Distribution" />
        <cc:permits
           rdf:resource="http://creativecommons.org/ns#DerivativeWorks" />
      </cc:License>
    </rdf:RDF>
  </metadata>
</svg>
